<svg width="20" height="21" viewBox="0 0 20 21" fill="none" xmlns="http://www.w3.org/2000/svg">
    <path
        d="M8.94018 4.58C9.29095 4.52624 9.64532 4.49949 10.0002 4.5C13.1802 4.5 16.1702 6.79 17.9102 10.5C17.6441 11.0646 17.3435 11.6123 17.0102 12.14C16.9044 12.3038 16.8487 12.495 16.8502 12.69C16.8524 12.9082 16.926 13.1198 17.0596 13.2923C17.1933 13.4648 17.3798 13.5889 17.5905 13.6455C17.8013 13.7022 18.0248 13.6883 18.227 13.6061C18.4291 13.5238 18.5988 13.3777 18.7102 13.19C19.1761 12.4579 19.5808 11.6887 19.9202 10.89C19.9738 10.7652 20.0015 10.6308 20.0015 10.495C20.0015 10.3592 19.9738 10.2248 19.9202 10.1C17.9002 5.41 14.1002 2.5 10.0002 2.5C9.53085 2.49764 9.06227 2.5378 8.60019 2.62C8.46886 2.64233 8.34322 2.6903 8.23044 2.76118C8.11766 2.83206 8.01994 2.92446 7.94287 3.0331C7.8658 3.14175 7.81088 3.26451 7.78125 3.39438C7.75162 3.52425 7.74786 3.65868 7.77018 3.79C7.79251 3.92132 7.84048 4.04696 7.91136 4.15975C7.98224 4.27253 8.07464 4.37024 8.18329 4.44732C8.29193 4.52439 8.41469 4.57931 8.54456 4.60894C8.67443 4.63857 8.80886 4.64233 8.94018 4.62V4.58ZM1.71019 0.790002C1.61695 0.696764 1.50626 0.622803 1.38443 0.572343C1.26261 0.521882 1.13204 0.495911 1.00019 0.495911C0.868326 0.495911 0.737758 0.521882 0.615936 0.572343C0.494114 0.622803 0.383424 0.696764 0.290185 0.790002C0.101882 0.978306 -0.00390625 1.2337 -0.00390625 1.5C-0.00390625 1.7663 0.101882 2.0217 0.290185 2.21L3.39019 5.3C1.97576 6.66153 0.850042 8.29399 0.0801853 10.1C0.025122 10.2262 -0.00329947 10.3623 -0.00329947 10.5C-0.00329947 10.6377 0.025122 10.7738 0.0801853 10.9C2.10019 15.59 5.90019 18.5 10.0002 18.5C11.7973 18.4876 13.552 17.9525 15.0502 16.96L18.2902 20.21C18.3831 20.3037 18.4937 20.3781 18.6156 20.4289C18.7375 20.4797 18.8682 20.5058 19.0002 20.5058C19.1322 20.5058 19.2629 20.4797 19.3848 20.4289C19.5066 20.3781 19.6172 20.3037 19.7102 20.21C19.8039 20.117 19.8783 20.0064 19.9291 19.8846C19.9798 19.7627 20.006 19.632 20.006 19.5C20.006 19.368 19.9798 19.2373 19.9291 19.1154C19.8783 18.9936 19.8039 18.883 19.7102 18.79L1.71019 0.790002ZM8.07018 9.98L10.5202 12.43C10.3512 12.4785 10.176 12.502 10.0002 12.5C9.46975 12.5 8.96104 12.2893 8.58597 11.9142C8.2109 11.5391 8.00019 11.0304 8.00019 10.5C7.99814 10.3242 8.02172 10.149 8.07018 9.98ZM10.0002 16.5C6.82018 16.5 3.83019 14.21 2.10019 10.5C2.74627 9.07375 3.66326 7.78658 4.80019 6.71L6.57019 8.5C6.15443 9.2588 5.99592 10.1319 6.11844 10.9885C6.24096 11.845 6.6379 12.6387 7.24971 13.2505C7.86152 13.8623 8.65522 14.2592 9.51173 14.3817C10.3682 14.5043 11.2414 14.3458 12.0002 13.93L13.5902 15.5C12.5013 16.1409 11.2636 16.4856 10.0002 16.5Z"
        fill="black" />
</svg>
    