<svg
  width="13"
  height="14"
  viewBox="0 0 13 14"
  fill="none"
  xmlns="http://www.w3.org/2000/svg"
>
  <path
    d="M12.75 4.02501C12.7505 3.94276 12.7347 3.86122 12.7036 3.78507C12.6725 3.70892 12.6267 3.63966 12.5688 3.58126L9.91876 0.93126C9.86036 0.873335 9.7911 0.827506 9.71495 0.796403C9.6388 0.765301 9.55727 0.749535 9.47501 0.75001C9.39276 0.749535 9.31122 0.765301 9.23507 0.796403C9.15892 0.827506 9.08966 0.873335 9.03126 0.93126L7.26251 2.70001L0.43126 9.53126C0.373335 9.58966 0.327506 9.65892 0.296403 9.73507C0.265301 9.81122 0.249535 9.89276 0.25001 9.97501V12.625C0.25001 12.7908 0.315858 12.9497 0.433069 13.067C0.550279 13.1842 0.70925 13.25 0.87501 13.25H3.52501C3.61247 13.2548 3.69994 13.2411 3.78177 13.2099C3.8636 13.1786 3.93795 13.1306 4.00001 13.0688L10.7938 6.23751L12.5688 4.50001C12.6258 4.43944 12.6723 4.36972 12.7063 4.29376C12.7123 4.24394 12.7123 4.19358 12.7063 4.14376C12.7092 4.11467 12.7092 4.08535 12.7063 4.05626L12.75 4.02501ZM3.26876 12H1.50001V10.2313L7.70626 4.02501L9.47501 5.79376L3.26876 12ZM10.3563 4.91251L8.58751 3.14376L9.47501 2.26251L11.2375 4.02501L10.3563 4.91251Z"
    fill="white"
  />
  <path
    d="M12.75 4.02501C12.7505 3.94276 12.7347 3.86122 12.7036 3.78507C12.6725 3.70892 12.6267 3.63966 12.5688 3.58126L9.91876 0.93126C9.86036 0.873335 9.7911 0.827506 9.71495 0.796403C9.6388 0.765301 9.55727 0.749535 9.47501 0.75001C9.39276 0.749535 9.31122 0.765301 9.23507 0.796403C9.15892 0.827506 9.08966 0.873335 9.03126 0.93126L7.26251 2.70001L0.43126 9.53126C0.373335 9.58966 0.327506 9.65892 0.296403 9.73507C0.265301 9.81122 0.249535 9.89276 0.25001 9.97501V12.625C0.25001 12.7908 0.315858 12.9497 0.433069 13.067C0.550279 13.1842 0.70925 13.25 0.87501 13.25H3.52501C3.61247 13.2548 3.69994 13.2411 3.78177 13.2099C3.8636 13.1786 3.93795 13.1306 4.00001 13.0688L10.7938 6.23751L12.5688 4.50001C12.6258 4.43944 12.6723 4.36972 12.7063 4.29376C12.7123 4.24394 12.7123 4.19358 12.7063 4.14376C12.7092 4.11467 12.7092 4.08535 12.7063 4.05626L12.75 4.02501ZM3.26876 12H1.50001V10.2313L7.70626 4.02501L9.47501 5.79376L3.26876 12ZM10.3563 4.91251L8.58751 3.14376L9.47501 2.26251L11.2375 4.02501L10.3563 4.91251Z"
    fill="white"
  />
</svg>