<svg width="16" height="16" viewBox="0 0 16 16" fill="none" xmlns="http://www.w3.org/2000/svg">
    <path
        d="M15.4 7.52523C15.3405 7.37179 15.2513 7.23161 15.1375 7.11273L8.8875 0.862732C8.77095 0.746184 8.63259 0.653733 8.48031 0.590657C8.32803 0.527582 8.16482 0.495117 8 0.495117C7.66712 0.495117 7.34788 0.627352 7.1125 0.862732C6.99595 0.97928 6.9035 1.11764 6.84043 1.26992C6.77735 1.4222 6.74489 1.58541 6.74489 1.75023C6.74489 2.08311 6.87712 2.40235 7.1125 2.63773L11.2375 6.75023H1.75C1.41848 6.75023 1.10054 6.88193 0.866117 7.11635C0.631696 7.35077 0.5 7.66871 0.5 8.00023C0.5 8.33175 0.631696 8.64969 0.866117 8.88412C1.10054 9.11854 1.41848 9.25023 1.75 9.25023H11.2375L7.1125 13.3627C6.99534 13.4789 6.90235 13.6172 6.83889 13.7695C6.77543 13.9218 6.74275 14.0852 6.74275 14.2502C6.74275 14.4152 6.77543 14.5786 6.83889 14.731C6.90235 14.8833 6.99534 15.0215 7.1125 15.1377C7.2287 15.2549 7.36695 15.3479 7.51928 15.4113C7.6716 15.4748 7.83499 15.5075 8 15.5075C8.16501 15.5075 8.3284 15.4748 8.48072 15.4113C8.63305 15.3479 8.7713 15.2549 8.8875 15.1377L15.1375 8.88773C15.2513 8.76885 15.3405 8.62867 15.4 8.47523C15.525 8.17091 15.525 7.82956 15.4 7.52523Z"
        fill="#373962" />
</svg>
    