<svg width="7" height="4" viewBox="0 0 7 4" fill="none" xmlns="http://www.w3.org/2000/svg">
    <path
        d="M6.62482 0.231062C6.50771 0.114655 6.34931 0.0493164 6.18419 0.0493164C6.01907 0.0493164 5.86067 0.114655 5.74357 0.231062L3.49982 2.44356L1.28732 0.231062C1.17021 0.114655 1.01181 0.0493164 0.84669 0.0493164C0.681574 0.0493164 0.523167 0.114655 0.406065 0.231062C0.347485 0.289164 0.300989 0.358289 0.269258 0.434451C0.237528 0.510613 0.221191 0.592304 0.221191 0.674812C0.221191 0.757319 0.237528 0.83901 0.269258 0.915172C0.300989 0.991334 0.347485 1.06046 0.406065 1.11856L3.05607 3.76856C3.11417 3.82714 3.18329 3.87364 3.25945 3.90537C3.33562 3.9371 3.41731 3.95344 3.49982 3.95344C3.58232 3.95344 3.66401 3.9371 3.74018 3.90537C3.81634 3.87364 3.88546 3.82714 3.94357 3.76856L6.62482 1.11856C6.6834 1.06046 6.72989 0.991334 6.76162 0.915172C6.79335 0.83901 6.80969 0.757319 6.80969 0.674812C6.80969 0.592304 6.79335 0.510613 6.76162 0.434451C6.72989 0.358289 6.6834 0.289164 6.62482 0.231062Z"
        fill="black" />
</svg>
    