<svg width="92" height="14" viewBox="0 0 92 14" fill="none" xmlns="http://www.w3.org/2000/svg">
    <path
        d="M3.744 1.588V11.38C4.44 11.788 5.388 11.992 6.588 11.992C8.016 11.992 9.276 11.602 10.368 10.822C10.92 10.426 11.358 9.874 11.682 9.166C12.006 8.458 12.168 7.66 12.168 6.772C12.168 5.872 11.988 5.074 11.628 4.378C11.28 3.682 10.824 3.124 10.26 2.704C9.12 1.84 7.944 1.408 6.732 1.408L3.744 1.588ZM3.492 0.399999L7.956 0.219999C9.624 0.219999 10.938 0.76 11.898 1.84C12.87 2.92 13.356 4.366 13.356 6.178C13.356 7.978 12.66 9.568 11.268 10.948C9.888 12.316 8.268 13 6.408 13H0.72V12.46H1.332C1.692 12.46 1.926 12.394 2.034 12.262C2.142 12.13 2.196 11.932 2.196 11.668V1.732C2.196 1.456 2.136 1.258 2.016 1.138C1.908 1.006 1.68 0.94 1.332 0.94H0.72V0.399999H3.492ZM19.3018 13H14.7298V12.496H15.3418C15.7018 12.496 15.9358 12.424 16.0438 12.28C16.1518 12.136 16.2058 11.932 16.2058 11.668V1.732C16.2058 1.468 16.1518 1.264 16.0438 1.12C15.9358 0.975999 15.7018 0.903999 15.3418 0.903999H14.7298V0.399999H19.3018V0.903999H18.6178C18.2578 0.903999 18.0238 0.975999 17.9158 1.12C17.8078 1.264 17.7538 1.468 17.7538 1.732V11.668C17.7538 11.932 17.8078 12.136 17.9158 12.28C18.0238 12.424 18.2578 12.496 18.6178 12.496H19.3018V13ZM32.9995 13H28.3915V12.496H28.9675C29.4955 12.496 29.7595 12.328 29.7595 11.992C29.7595 11.944 29.6995 11.74 29.5795 11.38L28.3555 8.176H23.8195L22.6315 11.236C22.6315 11.26 22.5895 11.41 22.5055 11.686C22.4215 11.95 22.3795 12.136 22.3795 12.244C22.3795 12.34 22.4455 12.406 22.5775 12.442C22.7095 12.478 22.9915 12.496 23.4235 12.496H23.7115V13H20.1835V12.496H20.4355C20.8315 12.496 21.1195 12.43 21.2995 12.298C21.4795 12.154 21.6355 11.92 21.7675 11.596L25.7275 1.264C25.7875 1.252 25.8955 1.168 26.0515 1.012C26.2075 0.844 26.3515 0.676 26.4835 0.508C26.6155 0.327999 26.6815 0.225999 26.6815 0.202C26.6815 0.177999 26.6755 0.159999 26.6635 0.147999L26.9155 0.075999L31.3435 11.668C31.4755 11.944 31.6075 12.154 31.7395 12.298C31.8835 12.43 32.0875 12.496 32.3515 12.496H32.9995V13ZM28.0315 7.42L26.0875 2.272L24.1075 7.42H28.0315ZM41.6115 12.82C41.5995 12.82 41.5695 12.82 41.5215 12.82C41.4735 12.82 41.2875 12.94 40.9635 13.18L36.8235 2.344L35.9595 11.776C35.9355 11.968 36.0255 12.13 36.2295 12.262C36.4335 12.394 36.7155 12.46 37.0755 12.46H37.8315V13H33.5115V12.46H34.0875C34.7835 12.46 35.1555 12.196 35.2035 11.668L36.1035 1.732C36.1275 1.504 36.0435 1.318 35.8515 1.174C35.6715 1.018 35.3835 0.94 34.9875 0.94H34.4115V0.399999H37.7955L41.6475 10.552L45.5355 0.399999H48.7755V0.903999H48.0555C47.4795 0.903999 47.1915 1.126 47.1915 1.57C47.1915 1.606 47.1915 1.648 47.1915 1.696L48.0195 11.668C48.0435 11.944 48.1095 12.148 48.2175 12.28C48.3375 12.4 48.5475 12.46 48.8475 12.46H49.5675V13H44.9595V12.46H45.5715C45.9075 12.46 46.1355 12.406 46.2555 12.298C46.3755 12.19 46.4355 12.076 46.4355 11.956C46.4355 11.824 46.4355 11.728 46.4355 11.668L45.6435 2.236L41.6115 12.82ZM56.0427 13.36C54.4707 13.36 53.1567 12.754 52.1007 11.542C51.0567 10.33 50.5347 8.932 50.5347 7.348C50.5347 6.364 50.7507 5.416 51.1827 4.504C51.6147 3.592 52.1667 2.818 52.8387 2.182C53.5227 1.546 54.2727 1.036 55.0887 0.651999C55.9167 0.267999 56.7147 0.075999 57.4827 0.075999C59.0427 0.075999 60.3507 0.681999 61.4067 1.894C62.4627 3.106 62.9907 4.504 62.9907 6.088C62.9907 7.264 62.6727 8.416 62.0367 9.544C61.4007 10.66 60.5367 11.578 59.4447 12.298C58.3647 13.006 57.2307 13.36 56.0427 13.36ZM57.1587 11.992C58.4667 11.992 59.5647 11.512 60.4527 10.552C61.3527 9.592 61.8027 8.404 61.8027 6.988C61.8027 5.572 61.2807 4.3 60.2367 3.172C59.2047 2.044 57.9507 1.48 56.4747 1.48C55.2147 1.48 54.1047 1.936 53.1447 2.848C52.1967 3.748 51.7227 4.828 51.7227 6.088C51.7227 7.72 52.2207 9.112 53.2167 10.264C54.2247 11.416 55.5387 11.992 57.1587 11.992ZM74.8288 13.288L66.8728 2.632V11.668C66.8728 12.196 67.2448 12.46 67.9888 12.46H68.6728V13H64.3528V12.46H64.9288C65.6728 12.46 66.0448 12.196 66.0448 11.668V1.732C66.0448 1.204 65.6728 0.94 64.9288 0.94H64.3528V0.399999H67.1968L74.6128 10.372V1.732C74.6128 1.204 74.2528 0.94 73.5328 0.94H72.9208V0.399999H77.2408V0.94H76.5568C75.8128 0.94 75.4408 1.204 75.4408 1.732V12.928C75.3088 12.928 75.1648 12.982 75.0088 13.09C74.8648 13.21 74.8048 13.276 74.8288 13.288ZM81.7381 1.588V11.38C82.4341 11.788 83.3821 11.992 84.5821 11.992C86.0101 11.992 87.2701 11.602 88.3621 10.822C88.9141 10.426 89.3521 9.874 89.6761 9.166C90.0001 8.458 90.1621 7.66 90.1621 6.772C90.1621 5.872 89.9821 5.074 89.6221 4.378C89.2741 3.682 88.8181 3.124 88.2541 2.704C87.1141 1.84 85.9381 1.408 84.7261 1.408L81.7381 1.588ZM81.4861 0.399999L85.9501 0.219999C87.6181 0.219999 88.9321 0.76 89.8921 1.84C90.8641 2.92 91.3501 4.366 91.3501 6.178C91.3501 7.978 90.6541 9.568 89.2621 10.948C87.8821 12.316 86.2621 13 84.4021 13H78.7141V12.46H79.3261C79.6861 12.46 79.9201 12.394 80.0281 12.262C80.1361 12.13 80.1901 11.932 80.1901 11.668V1.732C80.1901 1.456 80.1301 1.258 80.0101 1.138C79.9021 1.006 79.6741 0.94 79.3261 0.94H78.7141V0.399999H81.4861Z"
        fill="#373962" />
</svg>
    