<svg width="24" height="24" viewBox="0 0 24 24" fill="none" xmlns="http://www.w3.org/2000/svg">
    <path
        d="M19.6519 19.405C20.2039 19.29 20.5339 18.712 20.2589 18.218C19.6529 17.131 18.6989 16.175 17.4789 15.447C15.9069 14.509 13.9799 14 11.9999 14C10.0189 14 8.09291 14.508 6.52091 15.447C5.30091 16.175 4.34691 17.131 3.74091 18.218C3.46591 18.712 3.79591 19.29 4.34791 19.405C9.39469 20.4568 14.6041 20.4568 19.6509 19.405"
        fill="#5F6181" />
    <path
        d="M12 13C14.7614 13 17 10.7614 17 8C17 5.23858 14.7614 3 12 3C9.23858 3 7 5.23858 7 8C7 10.7614 9.23858 13 12 13Z"
        fill="#5F6181" />
</svg>
    