<svg width="13" height="13" viewBox="0 0 13 13" fill="none" xmlns="http://www.w3.org/2000/svg">
    <path
        d="M8.84375 0.875C8.00328 0.875 7.24156 1.0325 6.64625 1.32922C6.05141 1.62594 5.5625 2.10922 5.5625 2.75V4.625C5.5625 4.68547 5.58266 4.74406 5.59203 4.80078C5.12283 4.68155 4.64036 4.62248 4.15625 4.625C3.31578 4.625 2.55406 4.7825 1.95875 5.07922C1.36391 5.37594 0.875 5.85922 0.875 6.5V10.25C0.875 10.8908 1.36391 11.3741 1.95922 11.6708C2.55406 11.9675 3.31578 12.125 4.15625 12.125C4.99672 12.125 5.75844 11.9675 6.35375 11.6708C6.94812 11.3741 7.4375 10.8908 7.4375 10.25V10.0597C7.89605 10.1837 8.36874 10.2476 8.84375 10.25C9.68422 10.25 10.4459 10.0925 11.0413 9.79578C11.6356 9.49906 12.125 9.01578 12.125 8.375V2.75C12.125 2.10922 11.6361 1.62594 11.0408 1.32922C10.4464 1.0325 9.68469 0.875 8.84375 0.875ZM8.84375 1.8125C9.55766 1.8125 10.1933 1.96625 10.6161 2.17859C11.0394 2.39094 11.1875 2.61453 11.1875 2.75C11.1875 2.88594 11.0394 3.10906 10.6161 3.32141C10.1938 3.53375 9.55766 3.6875 8.84375 3.6875C8.12984 3.6875 7.49422 3.53375 7.07141 3.32141C6.64813 3.10906 6.5 2.88547 6.5 2.75C6.5 2.61406 6.64813 2.39094 7.07141 2.17859C7.49375 1.96625 8.12984 1.8125 8.84375 1.8125ZM6.5 4.08312C6.54922 4.11031 6.59516 4.14547 6.64672 4.17078C7.24156 4.4675 8.00328 4.625 8.84375 4.625C9.68422 4.625 10.4459 4.4675 11.0413 4.17078C11.0923 4.14547 11.1383 4.11031 11.1875 4.08312V4.625C11.1875 4.76094 11.0394 4.98406 10.6161 5.19641C10.1933 5.40875 9.55766 5.5625 8.84375 5.5625C8.12984 5.5625 7.49422 5.40875 7.07141 5.19641C6.64813 4.98406 6.5 4.76047 6.5 4.625V4.08312ZM4.15625 5.5625C4.87016 5.5625 5.50578 5.71625 5.92859 5.92859C6.35187 6.14094 6.5 6.36453 6.5 6.5C6.5 6.63594 6.35187 6.85906 5.92859 7.07141C5.50578 7.28375 4.87016 7.4375 4.15625 7.4375C3.44234 7.4375 2.80672 7.28375 2.38391 7.07141C1.96062 6.85906 1.8125 6.63547 1.8125 6.5C1.8125 6.36406 1.96062 6.14094 2.38391 5.92859C2.80625 5.71625 3.44234 5.5625 4.15625 5.5625ZM11.1875 5.95813V6.5C11.1875 6.63594 11.0394 6.85906 10.6161 7.07141C10.1933 7.28375 9.55766 7.4375 8.84375 7.4375C8.36624 7.44009 7.89143 7.36586 7.4375 7.21766V6.5C7.4375 6.43953 7.41734 6.38094 7.40797 6.32422C7.84391 6.43766 8.32719 6.5 8.84375 6.5C9.68422 6.5 10.4459 6.3425 11.0413 6.04578C11.0923 6.02047 11.1383 5.98531 11.1875 5.95813ZM1.8125 7.83313C1.86172 7.86031 1.90766 7.89547 1.95922 7.92078C2.55406 8.2175 3.31578 8.375 4.15625 8.375C4.99672 8.375 5.75844 8.2175 6.35375 7.92078C6.40484 7.89547 6.45078 7.86031 6.5 7.83313V8.375C6.5 8.51094 6.35187 8.73406 5.92859 8.94641C5.50578 9.15875 4.87016 9.3125 4.15625 9.3125C3.44234 9.3125 2.80672 9.15875 2.38391 8.94641C1.96062 8.73406 1.8125 8.51047 1.8125 8.375V7.83313ZM11.1875 7.83313V8.375C11.1875 8.51094 11.0394 8.73406 10.6161 8.94641C10.1933 9.15875 9.55766 9.3125 8.84375 9.3125C8.31078 9.3125 7.82937 9.2375 7.4375 9.10719V8.19922C7.86781 8.31266 8.33656 8.375 8.84375 8.375C9.68422 8.375 10.4459 8.2175 11.0413 7.92078C11.0923 7.89547 11.1383 7.86031 11.1875 7.83313ZM1.8125 9.70813C1.86172 9.73531 1.90766 9.77047 1.95922 9.79578C2.55406 10.0925 3.31578 10.25 4.15625 10.25C4.99672 10.25 5.75844 10.0925 6.35375 9.79578C6.40484 9.77047 6.45078 9.73531 6.5 9.70813V10.25C6.5 10.3859 6.35187 10.6091 5.92859 10.8214C5.50578 11.0337 4.87016 11.1875 4.15625 11.1875C3.44234 11.1875 2.80672 11.0337 2.38391 10.8214C1.96062 10.6091 1.8125 10.3855 1.8125 10.25V9.70813Z"
        fill="#666666" />
</svg>
    