<svg width="19" height="18" viewBox="0 0 19 18" fill="none" xmlns="http://www.w3.org/2000/svg">
    <path
        d="M13.2432 11.7336L13.6612 11.3183L12.6905 10.343L12.2743 10.7582L13.2432 11.7336ZM15.0628 11.1442L16.8146 12.0966L17.47 10.8884L15.7192 9.93692L15.0628 11.1442ZM17.151 13.9886L15.8493 15.2838L16.8182 16.2582L18.1199 14.9639L17.151 13.9886ZM15.0555 15.7C13.7263 15.8247 10.2888 15.7137 6.56533 12.0122L5.5955 12.9867C9.65816 17.0264 13.5256 17.2244 15.1838 17.0695L15.0555 15.7ZM6.56533 12.0122C3.01691 8.48308 2.42841 5.51583 2.35508 4.22792L0.981913 4.30583C1.07358 5.9265 1.80233 9.2155 5.5955 12.9867L6.56533 12.0122ZM7.82575 6.34725L8.08883 6.08508L7.12083 5.11067L6.85775 5.37192L7.82575 6.34725ZM8.29783 2.753L7.14283 1.20933L6.04191 2.03433L7.19691 3.57708L8.29783 2.753ZM3.25525 0.872917L1.81608 2.30292L2.78591 3.27825L4.22416 1.84825L3.25525 0.872917ZM7.34175 5.85958C6.85591 5.37192 6.85591 5.37192 6.85591 5.37375H6.85408L6.85133 5.37742C6.80805 5.42159 6.76907 5.46978 6.73491 5.52133C6.68541 5.59467 6.63133 5.69092 6.5855 5.81283C6.47387 6.12754 6.44607 6.46588 6.50483 6.79458C6.62766 7.5875 7.174 8.63525 8.57283 10.0267L9.54266 9.05142C8.23275 7.74975 7.92108 6.95775 7.86333 6.58375C7.83583 6.40592 7.86425 6.31792 7.8725 6.29775C7.87708 6.28492 7.87891 6.284 7.8725 6.29225C7.86441 6.30496 7.85521 6.31693 7.845 6.328L7.83583 6.33717C7.83287 6.34002 7.82981 6.34277 7.82666 6.34542L7.34175 5.85958ZM8.57283 10.0267C9.97258 11.4182 11.0258 11.9609 11.8197 12.0819C12.2257 12.1442 12.553 12.0947 12.8014 12.0022C12.9403 11.9508 13.0703 11.8777 13.1864 11.7858C13.2022 11.7726 13.2175 11.7589 13.2322 11.7446L13.2387 11.7391L13.2414 11.7363L13.2423 11.7345C13.2423 11.7345 13.2432 11.7336 12.7583 11.2459C12.2725 10.7582 12.2752 10.7573 12.2752 10.7573L12.2771 10.7555L12.2789 10.7537L12.2844 10.7491L12.2936 10.7399C12.3046 10.73 12.3162 10.7208 12.3284 10.7124C12.3376 10.706 12.3348 10.7087 12.322 10.7142C12.2991 10.7225 12.2092 10.7509 12.0287 10.7234C11.6492 10.6647 10.8517 10.3531 9.54266 9.05142L8.57283 10.0267ZM7.14283 1.20842C6.20783 -0.03825 4.37083 -0.23625 3.25525 0.872917L4.22416 1.84825C4.71183 1.36333 5.57716 1.41375 6.04191 2.03433L7.14283 1.20842ZM2.356 4.22883C2.33766 3.91167 2.48341 3.57983 2.78591 3.27917L1.81516 2.30383C1.32291 2.79333 0.935163 3.48633 0.981913 4.30583L2.356 4.22883ZM15.8493 15.2838C15.5982 15.535 15.3268 15.6762 15.0564 15.7009L15.1838 17.0695C15.8576 17.0062 16.4085 16.6671 16.8192 16.2592L15.8493 15.2838ZM8.08883 6.08508C8.99175 5.18767 9.05866 3.76958 8.29875 2.75392L7.19783 3.578C7.56725 4.07208 7.51225 4.72017 7.11991 5.11158L8.08883 6.08508ZM16.8155 12.0975C17.5644 12.5045 17.6808 13.4633 17.1519 13.9895L18.1217 14.9639C19.3501 13.742 18.9715 11.7042 17.4709 10.8893L16.8155 12.0975ZM13.6612 11.3192C14.0132 10.9691 14.5797 10.8829 15.0637 11.1451L15.7201 9.93783C14.7264 9.397 13.4944 9.54642 12.6914 10.3439L13.6612 11.3192Z"
        fill="#373962" />
</svg>
    