<svg width="63" height="43" viewBox="0 0 63 43" fill="none" xmlns="http://www.w3.org/2000/svg">
    <path
        d="M21.0337 3.52543L10.7891 2.26073L21.0337 1H41.5149L51.7555 2.26073L41.5149 3.52543H21.0337Z"
        stroke="white" stroke-linecap="round" stroke-linejoin="round" />
    <path d="M61.5494 10.0762L46.413 11.9414H16.1363L1 10.0762" stroke="white"
        stroke-linecap="round" stroke-linejoin="round" />
    <path d="M51.7579 2.26074L61.5494 10.0757L31.2767 42.1068L1 10.0757L10.7915 2.26074"
        stroke="white" stroke-linecap="round" stroke-linejoin="round" />
    <path d="M41.5177 3.52441L46.4134 11.9399L31.2771 42.1058L16.1367 11.9399L21.0365 3.52441"
        stroke="white" stroke-linecap="round" stroke-linejoin="round" />
    <path
        d="M35.4401 3.52629L46.4171 11.9417L47.7118 2.7627L53.9873 11.0071L31.2807 42.1077L8.57422 11.0071L14.263 2.7627L16.1404 11.9417L25.9966 3.52629L23.7065 11.9417L31.2807 42.1077"
        stroke="white" stroke-linecap="round" stroke-linejoin="round" />
    <path
        d="M30.7139 3.52441L31.2763 42.1058L38.535 11.9399L35.4357 3.52441L30.7139 11.9399L25.9922 3.52441"
        stroke="white" stroke-linecap="round" stroke-linejoin="round" />
</svg>
    