<svg width="34" height="48" viewBox="0 0 34 48" fill="none" xmlns="http://www.w3.org/2000/svg">
    <path
        d="M30.0867 47.5513L6.19659 47.4879C6.01622 47.4879 6.08769 47.4481 5.9975 47.3449C5.90731 47.2416 5.90731 47.0352 5.9975 46.932L8.54543 46.705C8.81599 46.1889 7.52168 47.7976 7.07074 47.4879H0.0901867V42.246L0.643599 42.6589C0.0901866 42.6589 -0.0657552 39.5418 0.324507 40.05C-0.0362456 40.05 0.506093 40.9147 0.325717 41.2244V43.1818C0.235529 43.3882 -0.0664546 43.5732 0.36075 42.6589C0.180374 42.5556 0.0901867 42.4524 0.0901867 42.246L0 9.36151C0 9.25829 -1.35918e-06 9.15508 0.0901867 9.05186L5.54656 2.80732C5.63675 2.7041 5.72694 2.7041 5.81713 2.7041H30.0957C30.2761 2.7041 30.4565 2.91053 30.4565 3.11696V47.2416C30.5467 47.3448 30.3663 47.5513 30.0957 47.5513H30.0867ZM7.07976 46.612H29.717V3.42661H5.98849L0.802673 9.36151L0.860318 40.5391C1.22107 40.023 0.0858736 39.267 0.71719 39.267C1.10866 40.4414 0.836888 46.4056 1.10745 46.612H9.32837C10.1491 47.1281 8.61392 46.054 8.15396 47.0965L7.07074 46.612H7.07976Z"
        fill="white" />
    <path
        d="M33.2694 45.0536H30.0858C29.9054 45.0536 29.725 44.8472 29.725 44.6407V3.42676H6.80827C6.62789 3.42676 6.5377 3.32354 6.44751 3.11711C6.35732 2.91068 6.44751 2.70425 6.5377 2.60103L8.72025 0.103214C8.81044 -1.57648e-06 8.90063 0 8.99082 0H33.2694C33.4498 0 33.6302 0.206431 33.6302 0.412862V44.6407C33.6302 44.8472 33.4498 45.0536 33.2694 45.0536ZM30.5367 44.1143H32.8997V0.92894H9.17119L7.80935 2.4875H30.0858C30.2662 2.4875 30.4466 2.69393 30.4466 2.90036L30.5367 44.1143Z"
        fill="white" />
    <path
        d="M30.0857 8.21635H7.98966C7.80928 8.21635 7.62891 8.00992 7.62891 7.80349C7.62891 7.59706 7.80928 7.39062 7.98966 7.39062H30.0857C30.2661 7.39062 30.4465 7.59706 30.4465 7.80349C30.4465 8.00992 30.3563 8.21635 30.0857 8.21635Z"
        fill="white" />
    <path
        d="M14.6292 44.847H12.4467C12.2663 44.847 12.0859 44.6405 12.0859 44.4341V41.9363C12.0859 41.7299 12.2663 41.5234 12.4467 41.5234H14.6292C14.8096 41.5234 14.99 41.7299 14.99 41.9363V44.4341C14.99 44.6405 14.8096 44.847 14.6292 44.847ZM12.8074 43.9077H14.1693V42.3492H12.8074V43.9077Z"
        fill="white" />
    <path
        d="M25.9901 44.2173H16.349C16.1687 44.2173 15.9883 44.0109 15.9883 43.8045C15.9883 43.598 16.1687 43.3916 16.349 43.3916H25.9901C26.1705 43.3916 26.3509 43.598 26.3509 43.8045C26.4411 44.0109 26.2607 44.2173 25.9901 44.2173Z"
        fill="white" />
    <path
        d="M27.088 15.4917H21.2709C21.0905 15.4917 20.9102 15.2853 20.9102 15.0789C20.9102 14.8724 21.0905 14.666 21.2709 14.666H27.088C27.2684 14.666 27.4488 14.8724 27.4488 15.0789C27.4488 15.2853 27.3586 15.4917 27.088 15.4917Z"
        fill="white" />
    <path
        d="M27.088 17.3706H21.2709C21.0905 17.3706 20.9102 17.1642 20.9102 16.9578C20.9102 16.7514 21.0905 16.5449 21.2709 16.5449H27.088C27.2684 16.5449 27.4488 16.7514 27.4488 16.9578C27.4488 17.1642 27.3586 17.3706 27.088 17.3706Z"
        fill="white" />
    <path
        d="M27.0817 19.2398H20.1733C19.9929 19.2398 19.8125 19.0334 19.8125 18.8269C19.8125 18.6205 19.9929 18.4141 20.1733 18.4141H27.0817C27.262 18.4141 27.4424 18.6205 27.4424 18.8269C27.4424 19.0334 27.3522 19.2398 27.0817 19.2398Z"
        fill="white" />
    <path
        d="M27.0817 21.1177H20.1733C19.9929 21.1177 19.8125 20.9113 19.8125 20.7049C19.8125 20.4984 19.9929 20.292 20.1733 20.292H27.0817C27.262 20.292 27.4424 20.4984 27.4424 20.7049C27.4424 20.9113 27.3522 21.1177 27.0817 21.1177Z"
        fill="white" />
    <path
        d="M27.088 22.8824H21.2709C21.0905 22.8824 20.9102 22.6759 20.9102 22.4695C20.9102 22.2631 21.0905 22.0566 21.2709 22.0566H27.088C27.2684 22.0566 27.4488 22.2631 27.4488 22.4695C27.4488 22.6759 27.3586 22.8824 27.088 22.8824Z"
        fill="white" />
</svg>
    