<svg width="24" height="24" viewBox="0 0 24 24" fill="none" xmlns="http://www.w3.org/2000/svg">
    <path
        d="M1.43506 23.1725H22.5601C22.7258 23.1725 22.8848 23.1066 23.002 22.9894C23.1192 22.8722 23.1851 22.7132 23.1851 22.5475C23.1851 22.3817 23.1192 22.2228 23.002 22.1055C22.8848 21.9883 22.7258 21.9225 22.5601 21.9225H1.43506C1.2693 21.9225 1.11033 21.9883 0.993117 22.1055C0.875906 22.2228 0.810059 22.3817 0.810059 22.5475C0.810059 22.7132 0.875906 22.8722 0.993117 22.9894C1.11033 23.1066 1.2693 23.1725 1.43506 23.1725ZM9.13756 18.475C9.66528 18.3266 10.1469 18.0471 10.5376 17.6625L22.4626 5.73749C22.8709 5.3275 23.1002 4.77241 23.1002 4.19374C23.1002 3.61507 22.8709 3.05997 22.4626 2.64999L21.2876 1.48749C20.8714 1.09087 20.3187 0.869629 19.7438 0.869629C19.169 0.869629 18.6162 1.09087 18.2001 1.48749L6.27506 13.4C5.89051 13.7886 5.61466 14.2714 5.47506 14.8L4.55006 18.25C4.50657 18.4076 4.50563 18.5739 4.54735 18.732C4.58908 18.8901 4.67196 19.0343 4.78756 19.15C4.96471 19.3236 5.20204 19.4221 5.45006 19.425L9.13756 18.475ZM9.65006 16.775C9.41954 17.0095 9.13032 17.1778 8.81256 17.2625L7.60006 17.5875L6.35006 16.3375L6.67506 15.125C6.76136 14.8079 6.92948 14.5191 7.16256 14.2875L7.63756 13.825L10.1251 16.3125L9.65006 16.775ZM11.0126 15.425L8.52506 12.9375L16.9376 4.52499L19.4251 7.01249L11.0126 15.425ZM21.5751 4.86249L20.3126 6.12499L17.8251 3.63749L19.0876 2.36249C19.2633 2.18692 19.5016 2.08831 19.7501 2.08831C19.9985 2.08831 20.2368 2.18692 20.4126 2.36249L21.5751 3.53749C21.7494 3.71391 21.8472 3.95195 21.8472 4.19999C21.8472 4.44802 21.7494 4.68606 21.5751 4.86249Z"
        fill="#373962" />
</svg>
    