<svg width="20" height="16" viewBox="0 0 20 16" fill="none" xmlns="http://www.w3.org/2000/svg">
    <path
        d="M2.66683 15.3332C2.16266 15.3332 1.73122 15.1538 1.3725 14.7951C1.01377 14.4364 0.834107 14.0046 0.833496 13.4998V2.49984C0.833496 1.99567 1.01316 1.56423 1.3725 1.2055C1.73183 0.846782 2.16327 0.667115 2.66683 0.666504H17.3335C17.8377 0.666504 18.2694 0.84617 18.6287 1.2055C18.9881 1.56484 19.1674 1.99628 19.1668 2.49984V13.4998C19.1668 14.004 18.9875 14.4358 18.6287 14.7951C18.27 15.1544 17.8383 15.3338 17.3335 15.3332H2.66683ZM10.0002 8.9165L2.66683 4.33317V13.4998H17.3335V4.33317L10.0002 8.9165ZM10.0002 7.08317L17.3335 2.49984H2.66683L10.0002 7.08317ZM2.66683 4.33317V2.49984V13.4998V4.33317Z"
        fill="#373962" />
</svg>
    