<svg width="17" height="18" viewBox="0 0 17 18" fill="none" xmlns="http://www.w3.org/2000/svg">
    <path
        d="M14.5205 7.71775H12.4734C10.7947 7.71775 9.42759 6.35067 9.42759 4.67192V2.62484C9.42759 2.23525 9.10884 1.9165 8.71926 1.9165H5.71592C3.53426 1.9165 1.77051 3.33317 1.77051 5.86192V12.1378C1.77051 14.6665 3.53426 16.0832 5.71592 16.0832H11.2834C13.4651 16.0832 15.2288 14.6665 15.2288 12.1378V8.42609C15.2288 8.0365 14.9101 7.71775 14.5205 7.71775Z"
        fill="#373962" />
    <path
        d="M11.191 2.06527C10.9006 1.77485 10.3977 1.97319 10.3977 2.37694V4.84902C10.3977 5.88319 11.276 6.74027 12.3456 6.74027C13.0185 6.74735 13.9535 6.74735 14.754 6.74735C15.1577 6.74735 15.3702 6.27277 15.0869 5.98944C14.0669 4.96235 12.2394 3.1136 11.191 2.06527Z"
        fill="#373962" />
</svg>
    