<svg width="18" height="16" viewBox="0 0 18 16" fill="none" xmlns="http://www.w3.org/2000/svg">
    <path
        d="M17.2201 3.75H0.779896C0.573055 3.75 0.374685 3.64464 0.228426 3.45711C0.0821675 3.26957 0 3.01522 0 2.75C0 2.48478 0.0821675 2.23043 0.228426 2.04289C0.374685 1.85536 0.573055 1.75 0.779896 1.75H17.2201C17.4269 1.75 17.6253 1.85536 17.7716 2.04289C17.9178 2.23043 18 2.48478 18 2.75C18 3.01522 17.9178 3.26957 17.7716 3.45711C17.6253 3.64464 17.4269 3.75 17.2201 3.75Z"
        fill="#373962" />
    <path
        d="M15.3068 7.25H0.693241C0.509382 7.25 0.333054 7.14464 0.203046 6.95711C0.0730378 6.76957 0 6.51522 0 6.25C0 5.98478 0.0730378 5.73043 0.203046 5.54289C0.333054 5.35536 0.509382 5.25 0.693241 5.25H15.3068C15.4906 5.25 15.6669 5.35536 15.797 5.54289C15.927 5.73043 16 5.98478 16 6.25C16 6.51522 15.927 6.76957 15.797 6.95711C15.6669 7.14464 15.4906 7.25 15.3068 7.25Z"
        fill="#373962" />
    <path
        d="M13.3934 10.75H0.606586C0.445709 10.75 0.291422 10.6446 0.177665 10.4571C0.0639081 10.2696 0 10.0152 0 9.75C0 9.48478 0.0639081 9.23043 0.177665 9.04289C0.291422 8.85536 0.445709 8.75 0.606586 8.75H13.3934C13.5543 8.75 13.7086 8.85536 13.8223 9.04289C13.9361 9.23043 14 9.48478 14 9.75C14 10.0152 13.9361 10.2696 13.8223 10.4571C13.7086 10.6446 13.5543 10.75 13.3934 10.75Z"
        fill="#373962" />
    <path
        d="M8.61005 14.25H0.389948C0.286527 14.25 0.187343 14.1446 0.114213 13.9571C0.0410838 13.7696 0 13.5152 0 13.25C0 12.9848 0.0410838 12.7304 0.114213 12.5429C0.187343 12.3554 0.286527 12.25 0.389948 12.25H8.61005C8.71347 12.25 8.81266 12.3554 8.88579 12.5429C8.95891 12.7304 9 12.9848 9 13.25C9 13.5152 8.95891 13.7696 8.88579 13.9571C8.81266 14.1446 8.71347 14.25 8.61005 14.25Z"
        fill="#373962" />
</svg>
    