<svg width="14" height="20" viewBox="0 0 14 20" fill="none" xmlns="http://www.w3.org/2000/svg">
    <path
        d="M7.00016 4.9585C7.60795 4.9585 8.19084 5.19994 8.62062 5.62971C9.05039 6.05948 9.29183 6.64237 9.29183 7.25016C9.29183 7.55111 9.23255 7.84911 9.11739 8.12715C9.00222 8.40518 8.83342 8.65781 8.62062 8.87062C8.40781 9.08342 8.15518 9.25222 7.87715 9.36739C7.59911 9.48255 7.30111 9.54183 7.00016 9.54183C6.39237 9.54183 5.80948 9.30039 5.37971 8.87062C4.94994 8.44084 4.7085 7.85795 4.7085 7.25016C4.7085 6.64237 4.94994 6.05948 5.37971 5.62971C5.80948 5.19994 6.39237 4.9585 7.00016 4.9585ZM7.00016 0.833496C8.70197 0.833496 10.3341 1.50954 11.5374 2.71289C12.7408 3.91625 13.4168 5.54836 13.4168 7.25016C13.4168 12.0627 7.00016 19.1668 7.00016 19.1668C7.00016 19.1668 0.583496 12.0627 0.583496 7.25016C0.583496 5.54836 1.25954 3.91625 2.46289 2.71289C3.66625 1.50954 5.29836 0.833496 7.00016 0.833496ZM7.00016 2.66683C5.78459 2.66683 4.6188 3.14971 3.75926 4.00926C2.89971 4.8688 2.41683 6.03459 2.41683 7.25016C2.41683 8.16683 2.41683 10.0002 7.00016 16.151C11.5835 10.0002 11.5835 8.16683 11.5835 7.25016C11.5835 6.03459 11.1006 4.8688 10.2411 4.00926C9.38153 3.14971 8.21574 2.66683 7.00016 2.66683Z"
        fill="#373962" />
</svg>
    