<svg width="23" height="5" viewBox="0 0 23 5" fill="none" xmlns="http://www.w3.org/2000/svg">
    <path
        d="M20.4376 4.0625C21.4207 4.0625 22.2251 3.32 22.2251 2.4125C22.2251 1.505 21.4207 0.7625 20.4376 0.7625C19.4545 0.7625 18.6501 1.505 18.6501 2.4125C18.6501 3.32 19.4545 4.0625 20.4376 4.0625ZM2.5626 4.0625C3.54572 4.0625 4.3501 3.32 4.3501 2.4125C4.3501 1.505 3.54572 0.7625 2.5626 0.7625C1.57947 0.7625 0.775097 1.505 0.775097 2.4125C0.775097 3.32 1.57947 4.0625 2.5626 4.0625ZM11.5001 4.0625C12.4832 4.0625 13.2876 3.32 13.2876 2.4125C13.2876 1.505 12.4832 0.7625 11.5001 0.7625C10.517 0.7625 9.7126 1.505 9.7126 2.4125C9.7126 3.32 10.517 4.0625 11.5001 4.0625Z"
        fill="#373962" />
</svg>
    