<svg width="22" height="22" viewBox="0 0 22 22" fill="none" xmlns="http://www.w3.org/2000/svg">
    <path
        d="M14.0518 2.82812L9.87367 5.50998L10.2972 5.74188L14.0144 3.35582L20.3194 6.92721L16.703 9.24852L16.8791 9.34494V9.63919L19.7118 7.82092L20.3063 8.15771L16.8791 10.3575V10.8612L19.6563 9.07857L20.3063 9.44682L16.8791 11.6466V12.1503L19.6563 10.3677L20.3063 10.7359L16.8791 12.9357V13.4394L21.1774 10.6804L20.1105 10.0762L21.1773 9.39139L20.1105 8.78707L21.1773 8.10228L20.1659 7.52938L21.1904 6.87174L14.0518 2.82812ZM15.3867 4.75055C14.4828 5.20412 13.2787 5.28087 12.4309 4.93888L10.7736 6.00266L16.2265 8.9877L17.7984 7.97879C17.1792 7.48998 17.2307 6.76063 17.9248 6.18828L15.3867 4.75055ZM9.77544 6.33798L6.73807 8.31859L12.5651 11.673L12.6222 11.6365C12.7296 11.5673 12.8813 11.4693 13.0623 11.3523C13.4241 11.1184 13.9029 10.8083 14.3803 10.4989C15.0679 10.0534 15.4222 9.82348 15.7517 9.60975L9.77544 6.33798ZM14.7369 6.38826H14.737C14.8745 6.3891 15.0005 6.41855 15.0945 6.47183C15.1493 6.50284 15.1918 6.54109 15.2195 6.58439C15.2473 6.6277 15.2598 6.67521 15.2563 6.72422C15.2529 6.77323 15.2335 6.82277 15.1993 6.87001C15.1651 6.91726 15.1168 6.96128 15.0572 6.99957C14.9975 7.03786 14.9277 7.06967 14.8516 7.09318C14.7755 7.11669 14.6948 7.13144 14.6139 7.13658C14.533 7.14173 14.4536 7.13717 14.3802 7.12318C14.3068 7.10918 14.2408 7.08601 14.1861 7.055C14.0755 6.99238 14.0173 6.90161 14.0244 6.80266C14.0314 6.7037 14.103 6.60467 14.2234 6.52735C14.2918 6.48343 14.3736 6.4481 14.4625 6.42402C14.5514 6.39994 14.6452 6.38771 14.7369 6.38826ZM5.35155 8.41273L0.822432 11.3198L1.83379 11.8927L0.809326 12.5503L1.87615 13.1546L0.809326 13.8394L1.87615 14.4437L0.809326 15.1285L7.94794 19.1721L12.2579 16.4056V15.902L7.98537 18.6444L1.68039 15.073L2.29291 14.6798L7.94794 17.883L12.2579 15.1165V14.6129L7.98537 17.3553L1.68039 13.7839L2.29291 13.3907L7.94794 16.5939L12.2579 13.8274V13.3238L7.98537 16.0663L1.68039 12.4948L2.25058 12.1288L7.96113 15.3634L12.2579 12.6054V12.3884L12.0224 12.2528L7.99839 14.8357L1.69358 11.2643L5.7653 8.65078L5.35151 8.4126L5.35155 8.41273ZM6.23069 8.9189L4.2146 10.2129C4.83378 10.7016 4.78222 11.431 4.08819 12.0034L6.62626 13.4411C7.5302 12.9875 8.73418 12.9108 9.58196 13.2528L11.557 11.985L6.23061 8.91886L6.23069 8.9189ZM16.1056 10.3021C15.76 10.5262 15.4552 10.7241 14.801 11.148C14.3616 11.4329 13.922 11.7175 13.4823 12.002C13.3011 12.119 13.149 12.2172 13.0406 12.2869C13.0368 12.2895 13.0352 12.2904 13.0314 12.2928V15.9849L16.1057 13.9186L16.1056 10.3021ZM7.46935 11.0532C7.60679 11.054 7.73279 11.0835 7.82685 11.1368C7.9374 11.1994 7.99557 11.2902 7.98856 11.3892C7.98155 11.4881 7.90994 11.5872 7.78947 11.6645C7.66901 11.7418 7.50958 11.791 7.34624 11.8014C7.18291 11.8118 7.02905 11.7825 6.91849 11.7199C6.80795 11.6573 6.74978 11.5665 6.75679 11.4676C6.7638 11.3686 6.83541 11.2696 6.95588 11.1922C7.02429 11.1483 7.106 11.113 7.19492 11.0889C7.28383 11.0649 7.37764 11.0526 7.46935 11.0532V11.0532Z"
        fill="#373962" />
</svg>
    