<svg width="17" height="17" viewBox="0 0 17 17" fill="none" xmlns="http://www.w3.org/2000/svg">
    <path
        d="M15.6112 4.31689C15.6839 4.23989 15.7715 4.17855 15.8687 4.13662C15.9659 4.09469 16.0707 4.07307 16.1766 4.07307C16.2825 4.07307 16.3872 4.09469 16.4845 4.13662C16.5817 4.17855 16.6693 4.23989 16.742 4.31689C17.0545 4.64189 17.0545 5.16856 16.742 5.49356L7.13367 15.5011C6.77043 15.886 6.33238 16.1927 5.84639 16.4023C5.36039 16.6119 4.8367 16.7201 4.30742 16.7201C3.77815 16.7201 3.25445 16.6119 2.76846 16.4023C2.28246 16.1927 1.84441 15.886 1.48117 15.5011C-0.0796615 13.8761 -0.0796615 11.2402 1.48117 9.61439L9.95867 0.784389C10.1766 0.553413 10.4395 0.369397 10.7311 0.243625C11.0227 0.117854 11.3369 0.0529785 11.6545 0.0529785C11.9721 0.0529785 12.2863 0.117854 12.5779 0.243625C12.8695 0.369397 13.1324 0.553413 13.3503 0.784389C14.287 1.75939 14.287 3.34106 13.3503 4.31689L6.00201 11.9677C5.92934 12.0446 5.84175 12.1058 5.7446 12.1477C5.64745 12.1895 5.54278 12.2111 5.43701 12.2111C5.33123 12.2111 5.22656 12.1895 5.12941 12.1477C5.03226 12.1058 4.94467 12.0446 4.87201 11.9677C4.72174 11.8087 4.63803 11.5982 4.63803 11.3794C4.63803 11.1606 4.72174 10.9501 4.87201 10.7911L12.2203 3.13856C12.3708 2.97948 12.4547 2.7688 12.4547 2.54981C12.4547 2.33081 12.3708 2.12014 12.2203 1.96106C12.1477 1.88406 12.06 1.82271 11.9628 1.78079C11.8656 1.73886 11.7608 1.71723 11.6549 1.71723C11.549 1.71723 11.4443 1.73886 11.347 1.78079C11.2498 1.82271 11.1622 1.88406 11.0895 1.96106L2.61034 10.7927C1.67451 11.7677 1.67451 13.3494 2.61034 14.3244C2.8283 14.5554 3.09114 14.7394 3.38275 14.8652C3.67436 14.9909 3.98859 15.0558 4.30617 15.0558C4.62375 15.0558 4.93798 14.9909 5.22959 14.8652C5.5212 14.7394 5.78405 14.5554 6.00201 14.3244L15.6112 4.31689Z"
        fill="#373962" />
</svg>
    