<svg width="19" height="16" viewBox="0 0 19 16" fill="none" xmlns="http://www.w3.org/2000/svg">
    <path
        d="M2.16634 15.3332C1.66217 15.3332 1.23073 15.1538 0.872008 14.7951C0.513286 14.4364 0.333619 14.0046 0.333008 13.4998V2.49984C0.333008 1.99567 0.512675 1.56423 0.872008 1.2055C1.23134 0.846782 1.66279 0.667115 2.16634 0.666504H16.833C17.3372 0.666504 17.7689 0.84617 18.1283 1.2055C18.4876 1.56484 18.667 1.99628 18.6663 2.49984V13.4998C18.6663 14.004 18.487 14.4358 18.1283 14.7951C17.7695 15.1544 17.3378 15.3338 16.833 15.3332H2.16634ZM9.49967 8.9165L2.16634 4.33317V13.4998H16.833V4.33317L9.49967 8.9165ZM9.49967 7.08317L16.833 2.49984H2.16634L9.49967 7.08317ZM2.16634 4.33317V2.49984V13.4998V4.33317Z"
        fill="#373962" />
</svg>
    