<svg width="13" height="14" viewBox="0 0 13 14" fill="none" xmlns="http://www.w3.org/2000/svg">
    <path
        d="M11.9997 7.58382H7.41634V12.1672C7.41634 12.6713 7.00384 13.0838 6.49967 13.0838C5.99551 13.0838 5.58301 12.6713 5.58301 12.1672V7.58382H0.999674C0.495508 7.58382 0.0830078 7.17132 0.0830078 6.66715C0.0830078 6.16299 0.495508 5.75049 0.999674 5.75049H5.58301V1.16715C5.58301 0.662988 5.99551 0.250488 6.49967 0.250488C7.00384 0.250488 7.41634 0.662988 7.41634 1.16715V5.75049H11.9997C12.5038 5.75049 12.9163 6.16299 12.9163 6.66715C12.9163 7.17132 12.5038 7.58382 11.9997 7.58382Z"
        fill="#373962" />
</svg>
    