<svg width="45" height="40" viewBox="0 0 45 40" fill="none" xmlns="http://www.w3.org/2000/svg">
    <path
        d="M22.5 0L44.5 8.57143V11.4286H41.5667C41.5667 11.8155 41.4101 12.1503 41.0969 12.433C40.7837 12.7158 40.4132 12.8571 39.9854 12.8571H5.01458C4.58681 12.8571 4.21632 12.7158 3.90313 12.433C3.58993 12.1503 3.43333 11.8155 3.43333 11.4286H0.5V8.57143L22.5 0ZM6.36667 14.2857H12.2333V31.4286H15.1667V14.2857H21.0333V31.4286H23.9667V14.2857H29.8333V31.4286H32.7667V14.2857H38.6333V31.4286H39.9854C40.4132 31.4286 40.7837 31.5699 41.0969 31.8527C41.4101 32.1354 41.5667 32.4702 41.5667 32.8571V34.2857H3.43333V32.8571C3.43333 32.4702 3.58993 32.1354 3.90313 31.8527C4.21632 31.5699 4.58681 31.4286 5.01458 31.4286H6.36667V14.2857ZM42.9188 35.7143C43.3465 35.7143 43.717 35.8557 44.0302 36.1384C44.3434 36.4211 44.5 36.756 44.5 37.1429V40H0.5V37.1429C0.5 36.756 0.656597 36.4211 0.969792 36.1384C1.28299 35.8557 1.65347 35.7143 2.08125 35.7143H42.9188Z"
        fill="#373962" />
</svg>
    