<svg width="75" height="42" viewBox="0 0 75 42" fill="none" xmlns="http://www.w3.org/2000/svg">
    <path
        d="M24.6836 23.1581L34.6519 18.3335L48.8925 21.2502H72.0104M58.2036 32.9826H63.7902M69.3769 13.3335H28.408C27.4203 13.3335 26.4729 13.6292 25.7745 14.1557C25.076 14.6821 24.6836 15.396 24.6836 16.1405V37.1931C24.6836 37.9376 25.076 38.6516 25.7745 39.178C26.4729 39.7044 27.4203 40.0002 28.408 40.0002H69.3769C70.3647 40.0002 71.312 39.7044 72.0104 39.178C72.7089 38.6516 73.1013 37.9376 73.1013 37.1931V16.1405C73.1013 15.396 72.7089 14.6821 72.0104 14.1557C71.312 13.6292 70.3647 13.3335 69.3769 13.3335Z"
        stroke="#373962" stroke-width="3" stroke-linecap="round" stroke-linejoin="round" />
    <path fill-rule="evenodd" clip-rule="evenodd"
        d="M10.3416 0C8.85781 0 7.43483 0.564412 6.38566 1.56907C5.33649 2.57373 4.74707 3.93634 4.74707 5.35714V8.71429H56.9623V5.35714C56.9623 3.93634 56.3728 2.57373 55.3237 1.56907C54.2745 0.564412 52.8515 0 51.3678 0H10.3416ZM4.74707 29.6429V10.6786H56.9623V29.6429C56.9623 31.0637 56.3728 32.4263 55.3237 33.431C54.2745 34.4357 52.8515 35.0001 51.3678 35.0001H10.3416C8.85781 35.0001 7.43483 34.4357 6.38566 33.431C5.33649 32.4263 4.74707 31.0637 4.74707 29.6429ZM40.1788 22.0536C39.5606 22.0536 38.9677 22.2888 38.5305 22.7074C38.0934 23.126 37.8478 23.6938 37.8478 24.2858C37.8478 24.8778 38.0934 25.4455 38.5305 25.8641C38.9677 26.2828 39.5606 26.5179 40.1788 26.5179H45.7733C46.3915 26.5179 46.9844 26.2828 47.4216 25.8641C47.8587 25.4455 48.1043 24.8778 48.1043 24.2858C48.1043 23.6938 47.8587 23.126 47.4216 22.7074C46.9844 22.2888 46.3915 22.0536 45.7733 22.0536H40.1788Z"
        fill="#373962" />
</svg>
    