<svg width="17" height="4" viewBox="0 0 17 4" fill="none" xmlns="http://www.w3.org/2000/svg">
    <path
        d="M12.5 2C12.5 1.46957 12.7107 0.96086 13.0858 0.585787C13.4609 0.210714 13.9696 0 14.5 0C15.0304 0 15.5391 0.210714 15.9142 0.585787C16.2893 0.96086 16.5 1.46957 16.5 2C16.5 2.53043 16.2893 3.03914 15.9142 3.41421C15.5391 3.78929 15.0304 4 14.5 4C13.9696 4 13.4609 3.78929 13.0858 3.41421C12.7107 3.03914 12.5 2.53043 12.5 2ZM6.5 2C6.5 1.46957 6.71071 0.96086 7.08579 0.585787C7.46086 0.210714 7.96957 0 8.5 0C9.03043 0 9.53914 0.210714 9.91421 0.585787C10.2893 0.96086 10.5 1.46957 10.5 2C10.5 2.53043 10.2893 3.03914 9.91421 3.41421C9.53914 3.78929 9.03043 4 8.5 4C7.96957 4 7.46086 3.78929 7.08579 3.41421C6.71071 3.03914 6.5 2.53043 6.5 2ZM0.5 2C0.5 1.46957 0.710714 0.96086 1.08579 0.585787C1.46086 0.210714 1.96957 0 2.5 0C3.03043 0 3.53914 0.210714 3.91421 0.585787C4.28929 0.96086 4.5 1.46957 4.5 2C4.5 2.53043 4.28929 3.03914 3.91421 3.41421C3.53914 3.78929 3.03043 4 2.5 4C1.96957 4 1.46086 3.78929 1.08579 3.41421C0.710714 3.03914 0.5 2.53043 0.5 2Z"
        fill="#373962" />
</svg>
    