<svg width="16" height="16" viewBox="0 0 16 16" fill="none" xmlns="http://www.w3.org/2000/svg">
    <path
        d="M8.00005 7.58343V14.6668M8.00005 14.6668L10.5001 12.1668M8.00005 14.6668L5.50005 12.1668M4.66672 3.86343C5.2903 3.9526 5.86797 4.24216 6.31255 4.68843M12.5834 9.66676C13.8492 9.66676 14.6667 8.64093 14.6667 7.37509C14.6667 6.87394 14.5024 6.38662 14.1989 5.98777C13.8955 5.58891 13.4697 5.30052 12.9867 5.16676C12.9124 4.23214 12.5251 3.3499 11.8873 2.66267C11.2495 1.97544 10.3986 1.5234 9.47214 1.37962C8.54566 1.23584 7.59777 1.40873 6.78171 1.87033C5.96565 2.33194 5.32913 3.05529 4.97505 3.92343C4.22957 3.71678 3.43254 3.81473 2.75928 4.19575C2.08603 4.57676 1.5917 5.20961 1.38505 5.95509C1.17841 6.70057 1.27636 7.49761 1.65737 8.17086C2.03839 8.84412 2.67124 9.33844 3.41672 9.54509"
        stroke="#373962" stroke-width="1.5" stroke-linecap="round" stroke-linejoin="round" />
</svg>
    